# Blender v2.91.0 OBJ File: ''
# www.blender.org
mtllib stall.mtl
o pCube1_Mesh
g default
v -0.065646 0.030099 0.036038
v 0.065646 0.030099 0.036038
v -0.065646 0.036025 0.036038
v 0.065646 0.036025 0.036038
v -0.065646 0.036025 -0.045748
v 0.065646 0.036025 -0.045748
v -0.065646 0.030099 -0.045748
v 0.065646 0.030099 -0.045748
vt 0.375000 0.000000
vt 0.625000 0.000000
vt 0.625000 0.250000
vt 0.375000 0.250000
vt 0.625000 0.500000
vt 0.375000 0.500000
vt 0.625000 0.750000
vt 0.375000 0.750000
vt 0.625000 1.000000
vt 0.375000 1.000000
vt 0.875000 0.000000
vt 0.875000 0.250000
vt 0.125000 0.000000
vt 0.125000 0.250000
vn 0.0000 0.0000 1.0000
vn 0.0000 1.0000 0.0000
vn 0.0000 0.0000 -1.0000
vn 0.0000 -1.0000 -0.0000
vn 1.0000 0.0000 0.0000
vn -1.0000 0.0000 0.0000
usemtl Wood_1
s 1
f 1/1/1 2/2/1 4/3/1 3/4/1
f 3/4/2 4/3/2 6/5/2 5/6/2
f 5/6/3 6/5/3 8/7/3 7/8/3
f 7/8/4 8/7/4 2/9/4 1/10/4
f 2/2/5 8/11/5 6/12/5 4/3/5
f 7/13/6 1/1/6 3/4/6 5/14/6
o pCube2_Mesh.001
v -0.062551 -0.009016 0.021832
v -0.060599 -0.009016 0.021832
v -0.062551 0.035004 -0.026024
v -0.060599 0.035004 -0.026024
v -0.062551 0.030466 -0.030199
v -0.060599 0.030466 -0.030199
v -0.062551 -0.013554 0.017658
v -0.060599 -0.013554 0.017658
vt 0.375000 0.000000
vt 0.625000 0.000000
vt 0.625000 0.250000
vt 0.375000 0.250000
vt 0.625000 0.500000
vt 0.375000 0.500000
vt 0.625000 0.750000
vt 0.375000 0.750000
vt 0.625000 1.000000
vt 0.375000 1.000000
vt 0.875000 0.000000
vt 0.875000 0.250000
vt 0.125000 0.000000
vt 0.125000 0.250000
vn 0.0000 0.7360 0.6770
vn 0.0000 0.6770 -0.7360
vn 0.0000 -0.7360 -0.6770
vn 0.0000 -0.6770 0.7360
vn 1.0000 0.0000 0.0000
vn -1.0000 -0.0000 0.0000
usemtl Wood_1
s 1
f 9/15/7 10/16/7 12/17/7 11/18/7
f 11/18/8 12/17/8 14/19/8 13/20/8
f 13/20/9 14/19/9 16/21/9 15/22/9
f 15/22/10 16/21/10 10/23/10 9/24/10
f 10/16/11 16/25/11 14/26/11 12/17/11
f 15/27/12 9/15/12 11/18/12 13/28/12
o pCube3_Mesh.002
v -0.062551 -0.012957 -0.030392
v -0.060599 -0.012957 -0.030392
v -0.062551 0.031014 0.017509
v -0.060599 0.031014 0.017509
v -0.062551 0.035556 0.013339
v -0.060599 0.035556 0.013339
v -0.062551 -0.008415 -0.034562
v -0.060599 -0.008415 -0.034562
vt 0.375000 0.000000
vt 0.625000 0.000000
vt 0.625000 0.250000
vt 0.375000 0.250000
vt 0.625000 0.500000
vt 0.375000 0.500000
vt 0.625000 0.750000
vt 0.375000 0.750000
vt 0.625000 1.000000
vt 0.375000 1.000000
vt 0.875000 0.000000
vt 0.875000 0.250000
vt 0.125000 0.000000
vt 0.125000 0.250000
vn 0.0000 -0.7367 0.6762
vn 0.0000 0.6762 0.7367
vn 0.0000 0.7367 -0.6762
vn 0.0000 -0.6762 -0.7367
vn 1.0000 -0.0000 0.0000
vn -1.0000 0.0000 0.0000
usemtl Wood_1
s 1
f 17/29/13 18/30/13 20/31/13 19/32/13
f 19/32/14 20/31/14 22/33/14 21/34/14
f 21/34/15 22/33/15 24/35/15 23/36/15
f 23/36/16 24/35/16 18/37/16 17/38/16
f 18/30/17 24/39/17 22/40/17 20/31/17
f 23/41/18 17/29/18 19/32/18 21/42/18
o pCube4_Mesh.003
v 0.061480 -0.009016 0.021832
v 0.063432 -0.009016 0.021832
v 0.061480 0.035004 -0.026024
v 0.063432 0.035004 -0.026024
v 0.061480 0.030466 -0.030199
v 0.063432 0.030466 -0.030199
v 0.061480 -0.013554 0.017658
v 0.063432 -0.013554 0.017658
vt 0.375000 0.000000
vt 0.625000 0.000000
vt 0.625000 0.250000
vt 0.375000 0.250000
vt 0.625000 0.500000
vt 0.375000 0.500000
vt 0.625000 0.750000
vt 0.375000 0.750000
vt 0.625000 1.000000
vt 0.375000 1.000000
vt 0.875000 0.000000
vt 0.875000 0.250000
vt 0.125000 0.000000
vt 0.125000 0.250000
vn 0.0000 0.7360 0.6770
vn 0.0000 0.6770 -0.7360
vn 0.0000 -0.7360 -0.6770
vn 0.0000 -0.6770 0.7360
vn 1.0000 0.0000 0.0000
vn -1.0000 -0.0000 0.0000
usemtl Wood_1
s 1
f 25/43/19 26/44/19 28/45/19 27/46/19
f 27/46/20 28/45/20 30/47/20 29/48/20
f 29/48/21 30/47/21 32/49/21 31/50/21
f 31/50/22 32/49/22 26/51/22 25/52/22
f 26/44/23 32/53/23 30/54/23 28/45/23
f 31/55/24 25/43/24 27/46/24 29/56/24
o pCube5_Mesh.004
v 0.061480 -0.012957 -0.030392
v 0.063432 -0.012957 -0.030392
v 0.061480 0.031014 0.017509
v 0.063432 0.031014 0.017509
v 0.061480 0.035556 0.013339
v 0.063432 0.035556 0.013339
v 0.061480 -0.008415 -0.034562
v 0.063432 -0.008415 -0.034562
vt 0.375000 0.000000
vt 0.625000 0.000000
vt 0.625000 0.250000
vt 0.375000 0.250000
vt 0.625000 0.500000
vt 0.375000 0.500000
vt 0.625000 0.750000
vt 0.375000 0.750000
vt 0.625000 1.000000
vt 0.375000 1.000000
vt 0.875000 0.000000
vt 0.875000 0.250000
vt 0.125000 0.000000
vt 0.125000 0.250000
vn 0.0000 -0.7367 0.6762
vn 0.0000 0.6762 0.7367
vn 0.0000 0.7367 -0.6762
vn 0.0000 -0.6762 -0.7367
vn 1.0000 0.0000 0.0000
vn -1.0000 -0.0000 0.0000
usemtl Wood_1
s 1
f 33/57/25 34/58/25 36/59/25 35/60/25
f 35/60/26 36/59/26 38/61/26 37/62/26
f 37/62/27 38/61/27 40/63/27 39/64/27
f 39/64/28 40/63/28 34/65/28 33/66/28
f 34/58/29 40/67/29 38/68/29 36/59/29
f 39/69/30 33/57/30 35/60/30 37/70/30
o pCube6_Mesh.005
v -0.064344 -0.023225 0.098543
v -0.056979 -0.023225 0.098543
v -0.064344 0.153239 0.098543
v -0.056979 0.153239 0.098543
v -0.064344 0.153239 0.092635
v -0.056979 0.153239 0.092635
v -0.064344 -0.023225 0.092635
v -0.056979 -0.023225 0.092635
vt 0.375000 0.000000
vt 0.625000 0.000000
vt 0.625000 0.250000
vt 0.375000 0.250000
vt 0.625000 0.500000
vt 0.375000 0.500000
vt 0.625000 0.750000
vt 0.375000 0.750000
vt 0.625000 1.000000
vt 0.375000 1.000000
vt 0.875000 0.000000
vt 0.875000 0.250000
vt 0.125000 0.000000
vt 0.125000 0.250000
vn 0.0000 -0.0000 1.0000
vn 0.0000 1.0000 0.0000
vn 0.0000 0.0000 -1.0000
vn 0.0000 -1.0000 0.0000
vn 1.0000 0.0000 0.0000
vn -1.0000 0.0000 0.0000
usemtl Wood_1
s 1
f 41/71/31 42/72/31 44/73/31 43/74/31
f 43/74/32 44/73/32 46/75/32 45/76/32
f 45/76/33 46/75/33 48/77/33 47/78/33
f 47/78/34 48/77/34 42/79/34 41/80/34
f 42/72/35 48/81/35 46/82/35 44/73/35
f 47/83/36 41/71/36 43/74/36 45/84/36
o pCube7_Mesh.006
v 0.059519 -0.023109 0.098543
v 0.066884 -0.023109 0.098543
v 0.059519 0.153355 0.098543
v 0.066884 0.153355 0.098543
v 0.059519 0.153355 0.092635
v 0.066884 0.153355 0.092635
v 0.059519 -0.023109 0.092635
v 0.066884 -0.023109 0.092635
vt 0.375000 0.000000
vt 0.625000 0.000000
vt 0.625000 0.250000
vt 0.375000 0.250000
vt 0.625000 0.500000
vt 0.375000 0.500000
vt 0.625000 0.750000
vt 0.375000 0.750000
vt 0.625000 1.000000
vt 0.375000 1.000000
vt 0.875000 0.000000
vt 0.875000 0.250000
vt 0.125000 0.000000
vt 0.125000 0.250000
vn 0.0000 -0.0000 1.0000
vn 0.0000 1.0000 0.0000
vn 0.0000 0.0000 -1.0000
vn 0.0000 -1.0000 0.0000
vn 1.0000 0.0000 0.0000
vn -1.0000 0.0000 0.0000
usemtl Wood_1
s 1
f 49/85/37 50/86/37 52/87/37 51/88/37
f 51/88/38 52/87/38 54/89/38 53/90/38
f 53/90/39 54/89/39 56/91/39 55/92/39
f 55/92/40 56/91/40 50/93/40 49/94/40
f 50/86/41 56/95/41 54/96/41 52/87/41
f 55/97/42 49/85/42 51/88/42 53/98/42
o pCube8_Mesh.007
v -0.078830 0.142778 0.102225
v 0.078830 0.142778 0.102225
v -0.078830 0.152778 0.102225
v 0.078830 0.152778 0.102225
v -0.078830 0.152778 0.095999
v 0.078830 0.152778 0.095999
v -0.078830 0.142778 0.095999
v 0.078830 0.142778 0.095999
v -0.078830 0.148219 0.076514
v 0.078830 0.148219 0.076514
v 0.078830 0.138219 0.076514
v -0.078830 0.138219 0.076514
v -0.078830 0.143587 0.059490
v 0.078830 0.143587 0.059490
v 0.078830 0.133587 0.059490
v -0.078830 0.133587 0.059490
v -0.078830 0.141226 0.039781
v 0.078830 0.141226 0.039781
v 0.078830 0.131226 0.039781
v -0.078830 0.131226 0.039781
v -0.078830 0.141226 0.017409
v 0.078830 0.141226 0.017409
v 0.078830 0.131226 0.017409
v -0.078830 0.131226 0.017409
v -0.078830 0.142623 -0.012992
v 0.078830 0.142623 -0.012992
v 0.078830 0.132623 -0.012992
v -0.078830 0.132623 -0.012992
v -0.078830 0.146718 -0.032195
v 0.078830 0.146718 -0.032195
v 0.078830 0.136718 -0.032195
v -0.078830 0.136718 -0.032195
v -0.078830 0.146718 -0.044710
v 0.078830 0.146718 -0.044710
v 0.078830 0.136718 -0.044710
v -0.078830 0.136718 -0.044710
vt 0.375000 0.000000
vt 0.625000 0.000000
vt 0.625000 0.250000
vt 0.375000 0.250000
vt 0.625000 0.500000
vt 0.375000 0.500000
vt 0.375000 0.750000
vt 0.625000 0.750000
vt 0.625000 1.000000
vt 0.375000 1.000000
vt 0.875000 0.000000
vt 0.875000 0.250000
vt 0.125000 0.000000
vt 0.125000 0.250000
vt 0.375000 0.500000
vt 0.625000 0.500000
vt 0.625000 0.500000
vt 0.375000 0.500000
vt 0.625000 0.750000
vt 0.625000 0.750000
vt 0.375000 0.750000
vt 0.375000 0.750000
vt 0.375000 0.500000
vt 0.625000 0.500000
vt 0.625000 0.500000
vt 0.375000 0.500000
vt 0.625000 0.750000
vt 0.625000 0.750000
vt 0.375000 0.750000
vt 0.375000 0.750000
vt 0.375000 0.500000
vt 0.625000 0.500000
vt 0.625000 0.500000
vt 0.375000 0.500000
vt 0.625000 0.750000
vt 0.625000 0.750000
vt 0.375000 0.750000
vt 0.375000 0.750000
vt 0.375000 0.500000
vt 0.625000 0.500000
vt 0.625000 0.750000
vt 0.375000 0.750000
vn 0.0000 -0.0000 1.0000
vn 0.0000 1.0000 0.0000
vn 0.0000 0.9883 -0.1526
vn -0.0000 -0.9885 0.1513
vn 0.0000 -1.0000 0.0000
vn 1.0000 0.0000 0.0000
vn -1.0000 0.0000 0.0000
vn 0.0000 0.9697 -0.2445
vn 0.0000 0.9821 -0.1882
vn 0.0000 -0.9697 0.2445
vn 0.0000 -0.9821 0.1881
vn 0.0000 0.9984 -0.0573
vn 0.0000 0.9997 0.0250
vn 0.0000 -0.9984 0.0573
vn 0.0000 -0.9997 -0.0251
vn -0.0000 0.9932 0.1164
vn -0.0000 0.9929 0.1192
vn 0.0000 -0.9932 -0.1161
vn 0.0000 -0.9929 -0.1187
vn 0.0000 0.0000 -1.0000
usemtl Yellow
s 1
f 57/99/43 58/100/43 60/101/43 59/102/43
f 59/102/44 60/101/44 62/103/45 61/104/45
f 63/105/46 64/106/46 58/107/47 57/108/47
f 58/100/48 64/109/48 62/110/48 60/101/48
f 63/111/49 57/99/49 59/102/49 61/112/49
f 65/113/50 66/114/50 70/115/51 69/116/51
f 66/114/48 67/117/48 71/118/48 70/115/48
f 67/117/52 68/119/52 72/120/53 71/118/53
f 68/119/49 65/113/49 69/116/49 72/120/49
f 73/121/54 74/122/54 78/123/55 77/124/55
f 74/122/48 75/125/48 79/126/48 78/123/48
f 75/125/56 76/127/56 80/128/57 79/126/57
f 76/127/49 73/121/49 77/124/49 80/128/49
f 81/129/58 82/130/58 86/131/59 85/132/59
f 82/130/48 83/133/48 87/134/48 86/131/48
f 83/133/60 84/135/60 88/136/61 87/134/61
f 84/135/49 81/129/49 85/132/49 88/136/49
usemtl Red
f 89/137/62 90/138/62 91/139/62 92/140/62
f 61/104/45 62/103/45 66/114/50 65/113/50
f 62/103/48 64/106/48 67/117/48 66/114/48
f 64/106/46 63/105/46 68/119/52 67/117/52
f 63/105/49 61/104/49 65/113/49 68/119/49
f 69/116/51 70/115/51 74/122/54 73/121/54
f 70/115/48 71/118/48 75/125/48 74/122/48
f 71/118/53 72/120/53 76/127/56 75/125/56
f 72/120/49 69/116/49 73/121/49 76/127/49
f 77/124/55 78/123/55 82/130/58 81/129/58
f 78/123/48 79/126/48 83/133/48 82/130/48
f 79/126/57 80/128/57 84/135/60 83/133/60
f 80/128/49 77/124/49 81/129/49 84/135/49
f 85/132/59 86/131/59 90/138/44 89/137/44
f 86/131/48 87/134/48 91/139/48 90/138/48
f 87/134/61 88/136/61 92/140/47 91/139/47
f 88/136/49 85/132/49 89/137/49 92/140/49
o pCube9_Mesh.008
v 0.071106 -0.027123 -0.037078
v 0.073799 -0.027123 -0.037078
v 0.071106 0.149341 -0.037078
v 0.073799 0.149341 -0.037078
v 0.071106 0.149341 -0.042985
v 0.073799 0.149341 -0.042985
v 0.071106 -0.027123 -0.042986
v 0.073799 -0.027123 -0.042986
vt 0.375000 0.000000
vt 0.625000 0.000000
vt 0.625000 0.250000
vt 0.375000 0.250000
vt 0.625000 0.500000
vt 0.375000 0.500000
vt 0.625000 0.750000
vt 0.375000 0.750000
vt 0.625000 1.000000
vt 0.375000 1.000000
vt 0.875000 0.000000
vt 0.875000 0.250000
vt 0.125000 0.000000
vt 0.125000 0.250000
vn 0.0000 -0.0000 1.0000
vn 0.0000 1.0000 0.0000
vn 0.0000 0.0000 -1.0000
vn 0.0000 -1.0000 0.0000
vn 1.0000 0.0000 0.0000
vn -1.0000 0.0000 0.0000
usemtl Wood_1
s 1
f 93/141/63 94/142/63 96/143/63 95/144/63
f 95/144/64 96/143/64 98/145/64 97/146/64
f 97/146/65 98/145/65 100/147/65 99/148/65
f 99/148/66 100/147/66 94/149/66 93/150/66
f 94/142/67 100/151/67 98/152/67 96/143/67
f 99/153/68 93/141/68 95/144/68 97/154/68
o pCube10_Mesh.009
v -0.074253 -0.027239 -0.037078
v -0.071561 -0.027239 -0.037078
v -0.074253 0.149225 -0.037078
v -0.071561 0.149225 -0.037078
v -0.074253 0.149225 -0.042985
v -0.071561 0.149225 -0.042985
v -0.074253 -0.027239 -0.042986
v -0.071561 -0.027239 -0.042986
vt 0.375000 0.000000
vt 0.625000 0.000000
vt 0.625000 0.250000
vt 0.375000 0.250000
vt 0.625000 0.500000
vt 0.375000 0.500000
vt 0.625000 0.750000
vt 0.375000 0.750000
vt 0.625000 1.000000
vt 0.375000 1.000000
vt 0.875000 0.000000
vt 0.875000 0.250000
vt 0.125000 0.000000
vt 0.125000 0.250000
vn 0.0000 -0.0000 1.0000
vn 0.0000 1.0000 0.0000
vn 0.0000 0.0000 -1.0000
vn 0.0000 -1.0000 0.0000
vn 1.0000 0.0000 0.0000
vn -1.0000 0.0000 0.0000
usemtl Wood_1
s 1
f 101/155/69 102/156/69 104/157/69 103/158/69
f 103/158/70 104/157/70 106/159/70 105/160/70
f 105/160/71 106/159/71 108/161/71 107/162/71
f 107/162/72 108/161/72 102/163/72 101/164/72
f 102/156/73 108/165/73 106/166/73 104/157/73
f 107/167/74 101/155/74 103/158/74 105/168/74
o pCube11_Mesh.010
v -0.074101 0.102170 -0.039081
v -0.071416 0.102126 -0.039284
v -0.063603 0.130624 0.093717
v -0.060919 0.130580 0.093514
v -0.063603 0.136400 0.092480
v -0.060919 0.136357 0.092277
v -0.074101 0.107946 -0.040319
v -0.071416 0.107903 -0.040521
vt 0.375000 0.000000
vt 0.625000 0.000000
vt 0.625000 0.250000
vt 0.375000 0.250000
vt 0.625000 0.500000
vt 0.375000 0.500000
vt 0.625000 0.750000
vt 0.375000 0.750000
vt 0.625000 1.000000
vt 0.375000 1.000000
vt 0.875000 0.000000
vt 0.875000 0.250000
vt 0.125000 0.000000
vt 0.125000 0.250000
vn -0.0000 -0.9778 0.2095
vn 0.0771 0.2089 0.9749
vn 0.0000 0.9778 -0.2095
vn -0.0771 -0.2089 -0.9749
vn 0.9970 -0.0161 -0.0754
vn -0.9970 0.0161 0.0754
usemtl Wood_1
s 1
f 109/169/75 110/170/75 112/171/75 111/172/75
f 111/172/76 112/171/76 114/173/76 113/174/76
f 113/174/77 114/173/77 116/175/77 115/176/77
f 115/176/78 116/175/78 110/177/78 109/178/78
f 110/170/79 116/179/79 114/180/79 112/171/79
f 115/181/80 109/169/80 111/172/80 113/182/80
o pCube12_Mesh.011
v 0.070648 0.095498 -0.036563
v 0.073337 0.095528 -0.036425
v 0.063507 0.123998 0.096448
v 0.066196 0.124028 0.096586
v 0.063507 0.129775 0.095210
v 0.066196 0.129804 0.095348
v 0.070648 0.101275 -0.037801
v 0.073337 0.101304 -0.037663
vt 0.375000 0.000000
vt 0.625000 0.000000
vt 0.625000 0.250000
vt 0.375000 0.250000
vt 0.625000 0.500000
vt 0.375000 0.500000
vt 0.625000 0.750000
vt 0.375000 0.750000
vt 0.625000 1.000000
vt 0.375000 1.000000
vt 0.875000 0.000000
vt 0.875000 0.250000
vt 0.125000 0.000000
vt 0.125000 0.250000
vn -0.0000 -0.9778 0.2095
vn -0.0524 0.2092 0.9765
vn 0.0000 0.9778 -0.2095
vn 0.0524 -0.2092 -0.9765
vn 0.9986 0.0110 0.0513
vn -0.9986 -0.0110 -0.0513
usemtl Wood_1
s 1
f 117/183/81 118/184/81 120/185/81 119/186/81
f 119/186/82 120/185/82 122/187/82 121/188/82
f 121/188/83 122/187/83 124/189/83 123/190/83
f 123/190/84 124/189/84 118/191/84 117/192/84
f 118/184/85 124/193/85 122/194/85 120/185/85
f 123/195/86 117/183/86 119/186/86 121/196/86
